<svg width="23" height="33" viewBox="0 0 23 33" fill="none" xmlns="http://www.w3.org/2000/svg">
<path d="M22.0727 10.45C22.0727 4.68765 17.3248 0 11.4885 0C5.65214 0 0.904297 4.68765 0.904297 10.45C0.904297 15.4572 4.49122 19.6488 9.26023 20.6624V30.8C9.26023 32.0133 10.2596 33 11.4885 33C12.7174 33 13.7167 32.0133 13.7167 30.8V20.6624C18.4857 19.6488 22.0727 15.4572 22.0727 10.45ZM12.6026 30.8C12.6026 31.4067 12.1029 31.9 11.4885 31.9C10.874 31.9 10.3744 31.4067 10.3744 30.8V20.8406C10.4579 20.8494 10.5443 20.85 10.6284 20.8566C11.2144 20.9088 11.7631 20.9088 12.3486 20.8566C12.4327 20.85 12.519 20.8494 12.6026 20.8406V30.8ZM14.8309 12.1C12.9881 12.1 11.4885 10.62 11.4885 8.8C11.4885 6.98005 12.9881 5.5 14.8309 5.5C16.6742 5.5 18.1732 6.98005 18.1732 8.8C18.1732 10.62 16.6736 12.1 14.8309 12.1Z" fill="#2F4858"/>
<path d="M14.8309 11C16.0615 11 17.0591 10.015 17.0591 8.8C17.0591 7.58497 16.0615 6.6 14.8309 6.6C13.6002 6.6 12.6026 7.58497 12.6026 8.8C12.6026 10.015 13.6002 11 14.8309 11Z" fill="#2F4858"/>
</svg>
